<svg width="707" height="804" viewBox="0 0 707 804" fill="none" xmlns="http://www.w3.org/2000/svg">
<path d="M362.256 197.656C353.254 196.677 344.066 195.662 335.089 194.498C330.396 193.891 325.765 191.465 321.468 189.174C308.591 182.302 295.552 176.792 280.433 177.287C268.397 177.552 256.712 181.393 246.865 188.319C242.977 191.035 239.11 193.784 235.263 196.566C227.772 201.989 222.125 202.336 214.399 196.64C208.443 192.257 203.255 186.871 197.46 182.215C178.886 167.282 157.168 158.342 135.796 148.535C97.8816 131.2 61.2423 111.475 27.9835 85.9922C25.538 84.0982 22.8731 82.5059 20.0464 81.2498C18.5234 80.5812 15.9356 80.3211 14.8955 81.1755C13.8554 82.0299 13.8553 84.6054 14.2392 86.2399C16.8271 97.3839 24.467 104.925 33.0108 111.524C54.5188 128.154 78.6889 140.152 103.478 150.987C104.129 151.21 104.717 151.583 105.197 152.075C105.677 152.568 106.034 153.166 106.24 153.822C98.8103 150.937 91.3808 148.238 84.1619 145.155C76.5839 141.911 69.0679 138.505 61.7252 134.778C54.5683 131.138 47.6218 127.077 40.6753 123.028C33.7289 118.979 26.7452 114.595 18.9692 109.865C18.3005 119.127 22.2752 125.009 27.4882 130.123C39.5611 141.789 53.9863 150.743 69.7985 156.386C89.4739 163.629 109.496 169.932 129.357 176.68C129.865 176.853 130.261 177.411 131.066 178.079C96.1232 173.399 64.0284 160.979 32.0945 147.346C32.726 155.296 36.8864 160.435 42.2479 164.607C56.0789 175.343 72.3864 180.704 89.0282 184.778C104.568 188.617 120.343 191.489 135.957 196.071C121.556 194.647 107.02 194.052 92.8171 191.551C78.6146 189.05 64.9941 184.654 50.0858 180.841C55.596 191.13 63.7065 197.111 73.4142 200.925C93.3249 208.787 114.276 210.087 135.437 210.211C137.211 210.132 138.987 210.307 140.712 210.731C116.752 216.922 92.7924 215.796 68.8946 208.255C75.0857 211.437 79.5062 217.876 85.5859 221.281C101.683 230.295 119.129 230.196 136.762 227.707C140.724 227.15 144.649 226.321 148.599 225.615L149.008 227.175C141.195 229.515 133.505 232.747 125.482 233.948C117.743 235.112 109.694 234.196 100.952 234.196C112.195 247.148 128.887 248.2 160.548 238.876L161.167 240.375L131.512 252.484C141.418 261.065 155.694 258.824 170.776 251.06L154.828 262.204C162.789 266.278 172.51 263.443 189.349 251.704C173.166 275.466 160.87 298.584 139.275 320.228C122.66 336.833 108.226 355.486 96.3214 375.738C85.1773 394.472 74.7638 413.231 69.1546 434.38C59.1992 458.142 58.5677 485.965 65.3904 512.624C78.2308 562.809 121.668 597.789 173.711 601.281C220.788 604.44 256.672 591.375 292.989 567.849C301.582 562.277 310.002 556.445 319.128 550.315L286.934 525.551C273.759 533.723 260.151 577.656 246.865 585.06C220.974 599.473 180.546 601.629 161.167 595.585C141.789 589.542 111.576 577.559 92.8171 550.315C74.058 523.072 69.1546 500.477 69.1546 467.429C69.1546 434.38 81.7226 412.129 98.8225 386.188C115.922 360.247 147.534 333.935 175.494 325.986C188.551 322.223 201.37 317.675 213.879 312.365C239.547 301.58 258.987 283.168 274.824 260.62C285.139 245.922 295.763 231.484 310.659 220.848C321.159 213.418 332.736 208.465 345.465 207.462C365.599 205.977 385.807 205.481 405.977 204.577C410.805 204.582 415.627 204.23 420.403 203.525C401.049 201.16 381.696 199.785 362.256 197.656ZM288.507 200.9C288.507 196.343 291.503 193.47 296.246 193.607C300.988 193.743 303.514 196.999 303.526 201.308C303.539 205.617 300.678 208.304 296.345 208.218C292.011 208.131 288.507 205.432 288.507 200.9Z" fill="white"></path>
<path opacity="0.32" d="M102.538 476.211C117.224 469.648 132.132 464.893 148.105 463.234C174.678 460.485 199.876 466.032 224.232 475.814C258.815 489.695 288.619 511.389 318.337 533.578C351.001 558.07 383.963 582.277 420.961 600.033C457.638 617.629 495.961 628.921 537.132 628.017C570.329 627.287 601.978 620.439 629.541 601.012C660.843 578.959 678.253 549.526 672.025 510.039C668 484.507 653.699 465.463 629.925 452.325C633.801 458.752 637.515 463.952 640.276 469.66C659.952 510.101 643.533 553.971 602.622 572.57C571.456 586.747 539.311 588.32 506.399 581.745C468.187 574.117 433.158 558.28 399.441 539.224C363.532 518.942 328.007 498.028 291.715 478.625C265.068 464.398 236.639 454.158 206.364 450.703C171.013 446.666 137.147 450.344 107.417 472.409C105.708 473.598 104.123 474.935 102.538 476.211Z" fill="white"></path>
<path opacity="0.09" d="M485.322 344.116C538.566 346.927 590.696 353.106 633.91 389.101C627.657 386.711 621.527 383.938 615.138 382.006C578.647 370.862 542.083 371.159 505.258 380.854C470.695 389.869 437.998 404.922 408.676 425.319C384.099 442.332 360.583 460.829 338.258 480.705C336.425 482.34 334.679 484.048 332.413 486.166L356.596 500.158C358.565 501.297 360.583 502.349 362.478 503.575C372.383 510.014 372.384 510.051 381.571 503.204C408.156 483.281 435.285 464.249 465.337 449.7C504.961 430.483 546.454 420.812 590.597 426.322C618.296 429.789 644.113 438.581 665.385 457.513C685.049 475.009 695.338 496.976 695.177 523.548C695.144 525.144 695.413 526.732 695.97 528.228C702.667 516.685 706.275 503.609 706.445 490.264C706.717 454.145 692.094 424.155 666.983 399.18C637.884 370.243 601.864 354.777 561.733 348.797C536.436 345.008 510.991 342.395 485.322 344.116Z" fill="white"></path>
<path d="M259.249 0C249.207 3.41751 242.496 9.90583 238.013 19.0192C229.346 36.6392 225.396 55.5593 221.99 74.6652C221.495 77.4264 221.049 80.2001 220.591 82.9613L218.115 82.5527L227.736 22.4367C216.914 27.3029 211.639 36.7754 209.794 47.7213C206.884 65.3413 205.25 83.1842 203.231 99.7269C199.517 84.6206 199.975 67.8178 201.523 50.6188C188.484 57.6272 186.07 69.4399 188.806 109.992L187.332 110.4C184.596 100.235 181.872 90.0811 178.925 79.1104C168.932 89.9202 171.186 102.525 172.511 115.638C170.233 111.218 167.967 106.785 165.379 101.745C160.228 108.791 161.156 116.27 162.048 123.489C162.234 124.962 165.564 125.965 167.323 127.327C180.316 137.406 193.284 147.506 206.228 157.626C207.664 158.753 208.977 160.041 210.091 161.007C216.678 156.648 223.229 152.736 229.209 148.092C230.968 146.718 231.797 143.3 231.909 140.762C233.246 109.175 236.007 77.7484 244.365 47.1394C248.699 31.4882 254.135 16.1341 259.249 0Z" fill="white"></path>
<path d="M482.511 611.044C391.336 680.873 236.674 770.494 136.416 654.604C94.7915 606.489 74.4719 563.839 63.5317 513.864C53.3913 467.542 63.5317 453.81 69.1041 439.57L69.1062 500.246C73.56 527.668 93.8104 586.993 145.764 646.309C210.706 720.453 315.884 723.462 455.244 625.273C494.09 597.904 500.414 502.146 544.342 505.244C588.271 508.343 573.686 541.216 482.511 611.044Z" fill="white"></path>
</svg>