<svg width="777" height="884" viewBox="0 0 777 884" fill="none" xmlns="http://www.w3.org/2000/svg">
<g opacity="0.6">
<path d="M398.044 217.673C388.142 216.597 378.037 215.481 368.163 214.201C363.001 213.534 357.907 210.865 353.182 208.346C339.017 200.79 324.676 194.731 308.047 195.276C294.808 195.568 281.956 199.791 271.125 207.407C266.849 210.393 262.595 213.416 258.364 216.475C250.124 222.438 243.914 222.819 235.415 216.556C228.864 211.736 223.158 205.814 216.784 200.694C196.355 184.275 172.467 174.444 148.96 163.661C107.257 144.6 66.9577 122.911 30.3762 94.8909C27.6864 92.8083 24.7552 91.0574 21.6462 89.6763C19.971 88.9411 17.1247 88.6552 15.9807 89.5946C14.8366 90.534 14.8366 93.366 15.2588 95.1632C18.1052 107.417 26.5084 115.709 35.9057 122.965C59.5625 141.251 86.1473 154.444 113.413 166.357C114.129 166.602 114.776 167.012 115.304 167.554C115.831 168.095 116.224 168.753 116.45 169.475C108.279 166.303 100.107 163.334 92.1671 159.944C83.8321 156.377 75.5651 152.633 67.4889 148.535C59.6169 144.532 51.9765 140.066 44.336 135.614C36.6956 131.162 29.0142 126.342 20.4613 121.141C19.7259 131.325 24.0977 137.792 29.8314 143.415C43.1105 156.244 58.9768 166.089 76.3687 172.293C98.0098 180.258 120.032 187.188 141.878 194.609C142.436 194.799 142.872 195.412 143.757 196.147C105.323 191 70.0222 177.344 34.8979 162.354C35.5925 171.095 40.1685 176.745 46.0657 181.334C61.2785 193.138 79.2152 199.033 97.5196 203.513C114.612 207.734 131.963 210.892 149.137 215.93C133.298 214.364 117.308 213.711 101.687 210.96C86.0656 208.21 71.0844 203.377 54.6867 199.183C60.7473 210.497 69.6681 217.074 80.3456 221.267C102.245 229.913 125.289 231.342 148.565 231.478C150.516 231.391 152.47 231.583 154.367 232.05C128.013 238.858 101.66 237.619 75.3745 229.327C82.1842 232.826 87.0463 239.906 93.7334 243.65C111.438 253.562 130.628 253.453 150.022 250.717C154.38 250.104 158.698 249.192 163.042 248.416L163.492 250.131C154.898 252.705 146.44 256.258 137.615 257.579C129.103 258.859 120.25 257.851 110.635 257.851C123.001 272.093 141.36 273.25 176.185 262.998L176.866 264.645L144.247 277.961C155.143 287.396 170.846 284.932 187.434 276.395L169.893 288.649C178.65 293.128 189.341 290.01 207.863 277.103C190.063 303.23 176.539 328.65 152.787 352.449C134.511 370.708 118.635 391.219 105.541 413.486C93.284 434.086 81.83 454.713 75.6605 477.968C64.7105 504.096 64.016 534.689 71.5202 564.002C85.6434 619.185 133.42 657.647 190.662 661.487C242.443 664.96 281.912 650.595 321.857 624.726C331.309 618.599 340.57 612.186 350.607 605.447L315.197 578.216C300.706 587.202 285.739 635.509 271.125 643.651C242.647 659.499 198.18 661.869 176.866 655.224C155.552 648.579 122.32 635.403 101.687 605.447C81.0537 575.49 75.6605 550.646 75.6605 514.307C75.6605 477.968 89.484 453.501 108.292 424.977C127.101 396.454 161.871 367.521 192.623 358.78C206.986 354.643 221.085 349.642 234.843 343.804C263.076 331.945 284.458 311.699 301.877 286.906C313.222 270.745 324.908 254.869 341.292 243.174C352.841 235.005 365.575 229.559 379.576 228.456C401.721 226.822 423.948 226.277 446.133 225.284C451.444 225.289 456.747 224.902 462 224.126C440.713 221.526 419.426 220.014 398.044 217.673ZM316.927 221.24C316.927 216.229 320.223 213.071 325.439 213.22C330.655 213.37 333.434 216.951 333.447 221.689C333.461 226.427 330.315 229.382 325.548 229.286C320.781 229.191 316.927 226.223 316.927 221.24Z" fill="#53099E"></path>
<path opacity="0.32" d="M113 523.682C129.159 516.452 145.563 511.213 163.138 509.384C192.377 506.356 220.103 512.468 246.902 523.246C284.955 538.539 317.75 562.442 350.449 586.89C386.39 613.876 422.659 640.548 463.369 660.112C503.725 679.498 545.893 691.941 591.194 690.945C627.722 690.14 662.546 682.595 692.874 661.19C727.317 636.891 746.473 604.462 739.62 560.955C735.192 532.823 719.456 511.84 693.297 497.365C697.561 504.446 701.648 510.176 704.687 516.465C726.336 561.023 708.27 609.36 663.255 629.852C628.962 645.473 593.592 647.206 557.378 639.961C515.333 631.557 476.789 614.108 439.689 593.111C400.178 570.764 361.089 547.721 321.156 526.343C291.836 510.667 260.554 499.384 227.242 495.578C188.344 491.13 151.081 495.182 118.368 519.494C116.488 520.804 114.744 522.277 113 523.682Z" fill="#53099E"></path>
<path opacity="0.09" d="M534.02 378.595C592.526 381.685 649.807 388.477 697.292 428.049C690.421 425.422 683.686 422.373 676.665 420.249C636.569 407.998 596.39 408.325 555.926 418.983C517.948 428.894 482.02 445.443 449.799 467.866C422.794 486.57 396.953 506.904 372.422 528.755C370.408 530.552 368.49 532.431 366 534.758L392.573 550.141C394.736 551.393 396.954 552.55 399.035 553.898C409.92 560.976 409.92 561.017 420.016 553.489C449.228 531.587 479.038 510.664 512.06 494.669C555.599 473.543 601.193 462.911 649.699 468.969C680.135 472.78 708.503 482.445 731.879 503.259C753.485 522.494 764.792 546.642 764.615 575.855C764.578 577.61 764.874 579.356 765.485 581C772.844 568.31 776.809 553.935 776.996 539.264C777.295 499.556 761.227 466.587 733.634 439.13C701.66 407.317 662.08 390.315 617.983 383.74C590.186 379.575 562.226 376.703 534.02 378.595Z" fill="#53099E"></path>
<path d="M285 0C273.922 3.75698 266.518 10.8898 261.573 20.9084C252.011 40.2786 247.654 61.0781 243.897 82.0818C243.351 85.1174 242.859 88.1665 242.354 91.202L239.622 90.7528L250.235 24.6654C238.297 30.015 232.477 40.4284 230.442 52.4616C227.232 71.8318 225.429 91.4471 223.202 109.633C219.104 93.0261 219.61 74.5543 221.317 55.6469C206.933 63.3514 204.27 76.3375 207.289 120.918L205.663 121.367C202.644 110.191 199.639 99.0291 196.388 86.9686C185.364 98.8521 187.85 112.709 189.312 127.125C186.798 122.265 184.299 117.392 181.444 111.852C175.761 119.597 176.786 127.819 177.769 135.755C177.974 137.375 181.649 138.477 183.588 139.975C197.922 151.055 212.229 162.158 226.508 173.284C228.093 174.523 229.541 175.938 230.77 177C238.037 172.208 245.263 167.907 251.861 162.802C253.801 161.291 254.716 157.534 254.839 154.744C256.314 120.019 259.36 85.4713 268.581 51.8218C273.362 34.6159 279.358 17.7368 285 0Z" fill="#53099E"></path>
<path d="M530.698 671.934C430.418 748.735 260.31 847.307 150.04 719.843C104.258 666.923 81.9093 620.013 69.8765 565.048C58.7234 514.1 69.8765 498.997 76.0054 483.335L76.0077 550.07C80.9063 580.23 103.179 645.481 160.321 710.72C231.749 792.269 347.431 795.578 500.708 687.583C543.433 657.481 550.389 552.159 598.704 555.568C647.02 558.976 630.978 595.132 530.698 671.934Z" fill="#53099E"></path>
</g>
</svg>